<svg width="14" height="9" viewBox="0 0 14 9" version="1.1" xmlns="http://www.w3.org/2000/svg" xmlns:xlink="http://www.w3.org/1999/xlink">
<title>Vector</title>
<desc>Created using Figma</desc>
<g id="Canvas" transform="translate(1396 -701)">
<g id="Vector">
<use xlink:href="#path0_fill" transform="translate(-1396 701)" fill="#FFFFFF"/>
<use xlink:href="#path1_fill" transform="translate(-1396 701)" fill="#FFFFFF"/>
</g>
</g>
<defs>
<path id="path0_fill" fill-rule="evenodd" d="M 10.7864 0.404632L 13.8586 4.19407C 14.0471 4.4266 14.0471 4.80362 13.8586 5.03616L 10.7864 8.8256C 10.5979 9.05813 10.2922 9.05813 10.1037 8.8256C 9.91518 8.59306 9.91518 8.21604 10.1037 7.9835L 12.3518 5.21057L 0.965796 5.21057L 0.965796 4.01966L 12.3518 4.01966L 10.1037 1.24673C 9.91518 1.01419 9.91518 0.63717 10.1037 0.404632C 10.2922 0.172093 10.5979 0.172093 10.7864 0.404632Z"/>
<path id="path1_fill" fill-rule="evenodd" d="M 0.965496 0.446589L 0.965796 5.21057C 0.483048 5.21057 -3.06231e-17 4.61475 0 4.0193L 0 0.446589C 3.06231e-17 -0.148863 0.965496 -0.148863 0.965496 0.446589Z"/>
</defs>
</svg>
