<svg xmlns="http://www.w3.org/2000/svg" id="star_red" width="16" height="15.279" viewBox="0 0 16 15.279">
    <defs>
        <style>
            .cls-3{fill:#f1f1f1}
        </style>
    </defs>
    <path id="Pfad_1" fill="#f24444" d="M22.681 24.386l-5.03-.467-2-4.64a.4.4 0 0 0-.74 0l-2 4.64-5.03.467a.4.4 0 0 0-.229.7l3.8 3.334-1.112 4.933a.4.4 0 0 0 .6.435l4.344-2.579 4.344 2.579a.4.4 0 0 0 .6-.435l-1.111-4.928 3.8-3.334a.4.4 0 0 0-.236-.705z" transform="translate(-7.283 -18.802)"/>
    <path id="Pfad_2" fill="#ea1b1b" d="M15.653 19.28a.4.4 0 0 0-.74 0l-2 4.64-5.03.467a.4.4 0 0 0-.229.7l3.8 3.334-1.114 4.932a.4.4 0 0 0 .6.435l.97-.576a17.779 17.779 0 0 1 4.733-11.638z" transform="translate(-7.283 -18.802)"/>
    <path id="Pfad_3" d="M103.145 94.95a.629.629 0 0 0-.547-.438l-4.892-.454-.97-2.252a.234.234 0 0 0-.431.185l1.025 2.38a.234.234 0 0 0 .194.141l5.03.467a.169.169 0 0 1 .1.295l-3.8 3.334a.234.234 0 0 0-.074.228l1.111 4.928a.169.169 0 0 1-.251.182l-4.34-2.58a.235.235 0 0 0-.239 0l-4.344 2.579a.169.169 0 0 1-.251-.182l.573-2.544a.234.234 0 0 0-.457-.1l-.573 2.544a.637.637 0 0 0 .947.688l4.224-2.508 4.224 2.508a.629.629 0 0 0 .7-.032.629.629 0 0 0 .247-.656l-1.08-4.793 3.691-3.242a.629.629 0 0 0 .183-.678z" class="cls-3" transform="translate(-87.178 -89.161)"/>
    <path id="Pfad_4" d="M3.628 22.492a.234.234 0 1 0 .457.1l.315-1.38a.234.234 0 0 0-.074-.228l-3.8-3.334a.169.169 0 0 1 .1-.295l5.03-.467a.234.234 0 0 0 .194-.141l2-4.64a.169.169 0 0 1 .31 0l.543 1.26a.234.234 0 0 0 .431-.185l-.543-1.26a.637.637 0 0 0-1.171 0l-1.949 4.513-4.891.454A.637.637 0 0 0 .218 18l3.691 3.242z" class="cls-3" transform="translate(0 -11.538)"/>
</svg>
